<svg width="256" height="256" viewBox="0 0 256 256" fill="none" xmlns="http://www.w3.org/2000/svg">
<circle cx="128" cy="128" r="128" fill="#F5F5F4"/>
<path d="M84.3342 184.418C81.2428 184.418 78.3446 183.065 75.6397 180.36C72.9347 177.655 71.5822 174.757 71.5822 171.666C71.5822 168.381 73.1279 165.097 76.0261 162.198C80.2768 157.948 85.8799 154.856 92.6423 151.379C98.6319 148.287 105.008 144.616 112.35 139.013C110.804 136.888 109.645 134.183 109.065 131.285C99.9843 132.637 93.0287 134.376 86.4595 136.501C79.1175 138.82 73.1279 140.559 67.1384 140.559C58.8303 140.559 54 135.728 54 128C54 120.272 58.8303 115.441 67.1384 115.441C73.1279 115.441 79.1175 117.18 86.4595 119.499C93.0287 121.624 99.9843 123.556 109.258 124.909C109.645 122.01 110.804 119.305 112.543 116.987C105.008 111.384 98.6319 107.713 92.6423 104.621C85.8799 101.144 80.2768 98.0522 76.0261 93.8016C73.1279 90.9034 71.5822 87.6188 71.5822 84.3342C71.5822 81.2428 72.9347 78.3446 75.6397 75.6397C78.3446 72.9347 81.2428 71.5822 84.3342 71.5822C87.6188 71.5822 90.9034 73.1279 93.8016 76.0261C98.0522 80.2768 101.144 85.8799 104.621 92.6423C107.713 98.6319 111.384 105.008 116.987 112.543C119.305 110.804 122.01 109.645 124.909 109.258C123.556 99.9843 121.624 93.0287 119.499 86.4595C117.18 79.1175 115.441 73.1279 115.441 67.1384C115.441 58.8303 120.272 54 128 54C135.728 54 140.559 58.8303 140.559 67.1384C140.559 73.1279 138.82 79.1175 136.501 86.4595C134.376 93.0287 132.637 99.9843 131.285 109.065C134.183 109.645 136.888 110.804 139.013 112.35C144.616 105.008 148.287 98.6319 151.379 92.6423C154.856 85.8799 157.948 80.2768 162.198 76.0261C165.097 73.1279 168.381 71.5822 171.666 71.5822C174.757 71.5822 177.655 72.9347 180.36 75.6397C183.065 78.3446 184.418 81.2428 184.418 84.3342C184.418 87.6188 182.872 90.9034 179.974 93.8016C175.723 98.0522 170.12 101.144 163.358 104.621C157.368 107.713 150.992 111.384 143.65 116.987C145.196 119.305 146.355 121.817 146.935 124.909C156.016 123.556 162.971 121.624 169.54 119.499C176.882 117.18 182.872 115.441 188.862 115.441C197.17 115.441 202 120.272 202 128C202 135.728 197.17 140.559 188.862 140.559C182.872 140.559 176.882 138.82 169.54 136.501C162.971 134.376 156.016 132.637 146.935 131.285C146.355 134.183 145.389 136.888 143.65 139.206C151.185 144.616 157.368 148.287 163.358 151.379C170.12 154.856 175.723 157.948 179.974 162.198C182.872 165.097 184.418 168.381 184.418 171.666C184.418 174.757 183.065 177.655 180.36 180.36C177.655 183.065 174.757 184.418 171.666 184.418C168.381 184.418 165.097 182.872 162.198 179.974C157.948 175.723 154.856 170.12 151.379 163.358C148.287 157.368 144.616 151.185 139.206 143.65C136.888 145.389 134.183 146.548 131.285 146.935C132.637 156.016 134.376 162.971 136.501 169.54C138.82 176.883 140.559 182.872 140.559 188.862C140.559 197.17 135.728 202 128 202C120.272 202 115.441 197.17 115.441 188.862C115.441 182.872 117.18 176.883 119.499 169.54C121.624 162.971 123.556 156.016 124.909 146.935C122.01 146.355 119.305 145.196 116.987 143.65C111.384 150.992 107.713 157.368 104.621 163.358C101.144 170.12 98.0522 175.723 93.8016 179.974C90.9034 182.872 87.6188 184.418 84.3342 184.418Z" fill="#ACE2AF"/>
</svg>
